# xmcd CD database file generated by MAGIX-FreeDB-MP3_Maker_12 v2.0beta1
# 
# Track frame offsets:
#      150
#      21392
#      37232
#      52711
#      74794
#      97953
#      116589
#      135014
#      151166
#      171821
#      190735
#      209862
# 
# Disc length: 3049 seconds
# 
# Revision: 2 
# Processed by: cddbd v1.5.2PL0 Copyright (c) Steve Scherf et al.
# Submitted via: MAGIX-FreeDB-MP3_Maker_12 v2.0beta1
# 
DISCID=a50be70c
DTITLE=Brand New Heavies,the - Get Used to It
DYEAR=2006
DGENRE=Acid Jazz
TTITLE0=Brand New Heavies,the - We've Got
TTITLE1=Brand New Heavies,the - I Don't Know Why (I Love You)
TTITLE2=Brand New Heavies,the - Get Used To It
TTITLE3=Brand New Heavies,the - Sex God
TTITLE4=Brand New Heavies,the - Let's Do It Again
TTITLE5=Brand New Heavies,the - We Won't Stop
TTITLE6=Brand New Heavies,the - Right On
TTITLE7=Brand New Heavies,the - Music
TTITLE8=Brand New Heavies,the - I Just Realized
TTITLE9=Brand New Heavies,the - All Fired Up
TTITLE10=Brand New Heavies,the - Love Is
TTITLE11=Brand New Heavies,the - I've Been Touched
EXTD=YEAR: 2006
EXTT0=
EXTT1=
EXTT2=
EXTT3=
EXTT4=
EXTT5=
EXTT6=
EXTT7=
EXTT8=
EXTT9=
EXTT10=
EXTT11=
PLAYORDER=
